HIERARCHY
ROOT hip
{
	OFFSET 0.000000 0.000000 0.000000 
	CHANNELS 6 Xposition Yposition Zposition Xrotation Zrotation Yrotation
	JOINT abdomen
	{
		OFFSET 0.000000 3.402643 0.000000 
		CHANNELS 3 Xrotation Zrotation Yrotation
		JOINT chest
		{
			OFFSET 0.000000 8.438565 -0.680529 
			CHANNELS 3 Xrotation Zrotation Yrotation
			JOINT neck
			{
				OFFSET 0.000000 10.207942 -0.272212 
				CHANNELS 3 Xrotation Zrotation Yrotation
				JOINT head
				{
					OFFSET 0.000000 3.130431 0.000000 
					CHANNELS 3 Xrotation Zrotation Yrotation
					End Site
					{
						OFFSET 0.000000 3.130435 0.000000 
					}
				}
			}
			JOINT lCollar
			{
				OFFSET 3.470700 6.669187 -0.816635 
				CHANNELS 3 Yrotation Zrotation Xrotation
				JOINT lShldr
				{
					OFFSET 3.198488 0.000000 0.000000 
					CHANNELS 3 Zrotation Yrotation Xrotation
					JOINT lForeArm
					{
						OFFSET 10.139888 0.000000 0.000000 
						CHANNELS 3 Yrotation Zrotation Xrotation
						JOINT lHand
						{
							OFFSET 8.370511 0.000000 0.000000 
							CHANNELS 3 Zrotation Yrotation Xrotation
							End Site
							{
								OFFSET 4.083176 0.000000 0.000000 
							}
						}
					}
				}
			}
			JOINT rCollar
			{
				OFFSET -3.470700 6.669187 -0.816635 
				CHANNELS 3 Yrotation Zrotation Xrotation
				JOINT rShldr
				{
					OFFSET -3.198488 0.000000 0.000000 
					CHANNELS 3 Zrotation Yrotation Xrotation
					JOINT rForeArm
					{
						OFFSET -10.139888 0.000000 0.000000 
						CHANNELS 3 Yrotation Zrotation Xrotation
						JOINT rHand
						{
							OFFSET -8.370511 0.000000 0.000000 
							CHANNELS 3 Zrotation Yrotation Xrotation
							End Site
							{
								OFFSET -4.083176 0.000000 0.000000 
							}
						}
					}
				}
			}
		}
	}
	JOINT lThigh
	{
		OFFSET 5.308129 -1.633274 1.361059 
		CHANNELS 3 Xrotation Zrotation Yrotation
		JOINT lShin
		{
			OFFSET -2.041588 -20.007561 0.000000 
			CHANNELS 3 Xrotation Zrotation Yrotation
			JOINT lFoot
			{
				OFFSET 0.000000 -19.190928 -1.224953 
				CHANNELS 3 Xrotation Yrotation Zrotation
				End Site
				{
					OFFSET 0.000000 -2.449906 4.627600 
				}
			}
		}
	}
	JOINT rThigh
	{
		OFFSET -5.308129 -1.633274 1.361059 
		CHANNELS 3 Xrotation Zrotation Yrotation
		JOINT rShin
		{
			OFFSET 2.041588 -20.007561 0.000000 
			CHANNELS 3 Xrotation Zrotation Yrotation
			JOINT rFoot
			{
				OFFSET 0.000000 -19.190928 -1.224953 
				CHANNELS 3 Xrotation Yrotation Zrotation
				End Site
				{
					OFFSET 0.000000 -2.449906 4.627600 
				}
			}
		}
	}
}
MOTION
Frames: 20
Frame Time: 0.016667
2.737885 45.672127 32.705521 21.493700 -2.898980 6.144200 -11.495300 3.865060 6.065960 15.173200 3.879350 2.828240 22.527500 5.587340 -5.471080 17.843700 5.226120 -1.787070 2.000000 -2.000000 0.000000 101.982002 -171.237000 6.837260 43.623501 -0.313817 0.094380 0.077709 -0.083281 -168.190994 -2.000000 2.000000 0.000000 53.161499 53.030701 153.151993 -23.906500 0.339835 0.055406 -0.054659 -0.009156 -133.649994 -29.896837 -1.749270 -4.482153 41.970852 1.731380 3.240664 -9.694818 -15.771137 -4.539836 -75.614029 4.618893 16.201082 78.565620 0.721806 -4.737470 -10.321757 25.296238 2.406564 
2.695028 45.075668 34.033470 20.471800 -2.635130 7.033960 -11.742300 3.799060 5.747590 15.083300 4.141250 2.660510 23.858999 4.959090 -5.425230 18.275999 4.855540 -1.770650 2.000000 -2.000000 0.000000 102.841003 -170.591995 6.545810 43.349998 -0.314266 0.093906 0.077554 -0.083024 -168.084000 -2.000000 2.000000 0.000000 53.608101 51.835701 154.800003 -24.951401 0.338804 0.057677 -0.054471 -0.004839 -135.192993 -28.946604 -2.319216 -5.416148 45.550114 1.631587 3.405163 -11.398282 -16.637362 -5.459632 -73.610802 4.718776 16.838602 76.386124 0.497381 -4.690579 -11.201176 22.864719 2.455530 
2.647048 44.425331 35.402763 19.335899 -2.525050 7.942440 -11.968900 3.823080 5.449790 15.042300 4.403440 2.505500 24.914200 4.396040 -5.495390 18.630501 4.506720 -1.809760 2.000000 -2.000000 0.000000 103.856003 -169.653000 6.079260 43.594200 -0.313865 0.094329 0.077313 -0.082626 -167.917999 -2.000000 2.000000 0.000000 53.810101 50.513901 156.417999 -26.035400 0.337691 0.060011 -0.054400 -0.000601 -136.707001 -27.712704 -2.659956 -6.461919 49.009075 1.562900 3.547365 -12.616296 -18.057793 -6.364861 -71.680794 4.967091 17.516436 74.374069 0.323577 -4.626110 -12.322560 20.092335 2.358685 
2.582105 43.731552 36.818111 18.211399 -2.504820 8.795300 -12.164700 3.847730 5.181430 15.089600 4.617660 2.381450 25.624100 4.075530 -5.635290 18.870100 4.265190 -1.872520 2.000000 -2.000000 0.000000 105.182999 -168.410995 5.418110 44.648899 -0.312113 0.096135 0.077795 -0.083421 -168.250000 -2.000000 2.000000 0.000000 53.650902 49.181999 158.097000 -27.148701 0.336502 0.062387 -0.054476 0.004977 -138.699005 -26.154985 -2.698999 -7.368904 52.074829 1.496679 3.646815 -12.653820 -20.155939 -6.949362 -69.943100 5.349944 18.272110 72.557419 0.138005 -4.553723 -13.062577 17.181065 2.025022 
2.483731 43.001419 38.293671 17.183800 -2.425860 9.572200 -12.348100 3.796610 4.958810 15.254900 4.784230 2.281900 25.998699 4.237420 -5.738450 18.996700 4.234100 -1.919460 2.000000 -2.000000 0.000000 107.008003 -166.837006 4.523340 46.641102 -0.308714 0.099458 0.079324 -0.095649 -169.285004 -2.000000 2.000000 0.000000 53.101398 47.830101 160.007996 -28.359699 0.335156 0.064944 -0.054940 0.013167 -141.628998 -24.554937 -2.494824 -7.904334 54.826950 1.427587 3.728879 -11.725732 -22.436560 -7.076276 -68.453819 5.754808 19.304853 71.143852 -0.009450 -4.508519 -12.976150 14.996155 1.563369 
2.342196 42.236229 39.839447 16.321301 -2.230650 10.352600 -12.567400 3.602880 4.796750 15.460000 4.873330 2.203350 26.134300 5.132960 -5.726100 19.091700 4.533920 -1.900330 2.000000 -2.000000 0.000000 109.487000 -164.813004 3.424500 49.463402 -0.303706 0.103959 0.081488 -0.098972 -170.701004 -2.000000 2.000000 0.000000 52.151299 46.360500 162.132996 -29.785500 0.333503 0.067917 -0.056084 0.023191 -145.231995 -22.930220 -2.099871 -7.959283 57.128212 1.380923 3.802330 -10.213344 -24.449537 -6.726620 -67.296555 5.939760 20.412855 70.427605 -0.070042 -4.484919 -12.230325 14.520376 1.320829 
2.152951 41.450806 41.456444 15.663800 -1.974680 11.262800 -12.843000 3.279080 4.672960 15.607200 4.854960 2.129580 26.128201 6.626850 -5.652760 19.173901 5.079030 -1.863020 2.000000 -2.000000 0.000000 112.629997 -162.123993 2.161120 52.861801 -0.297391 0.109043 -179.916000 -179.897995 8.019750 -2.000000 2.000000 0.000000 50.702499 44.695599 164.203003 -31.484699 0.331437 0.071406 -0.057834 0.033016 -148.796997 -21.414412 -1.546298 -7.712435 59.143284 1.353232 3.824349 -8.993061 -25.946486 -6.293128 -66.827995 5.781401 21.137331 71.249252 -0.041130 -4.476086 -11.564903 15.732298 1.355321 
1.919445 40.686253 43.140278 15.193100 -1.781230 12.455800 -13.187400 2.920120 4.539260 15.676200 4.797080 2.062200 26.016701 8.077120 -5.718160 19.226801 5.577460 -1.879800 2.000000 -2.000000 0.000000 116.318001 -158.585999 0.698022 56.572800 -0.290164 0.114156 -179.925003 -179.895996 7.238500 -2.000000 2.000000 0.000000 48.667301 42.953499 165.839005 -33.418301 0.328962 0.075299 -0.059727 0.040998 -151.725998 -19.697218 -0.769512 -7.443094 60.511215 1.373415 3.835816 -7.815511 -27.277367 -5.755996 -67.108795 5.152535 20.961773 73.250732 0.124431 -4.541005 -11.009373 17.519772 1.498812 
1.660909 39.989250 44.889164 14.889700 -1.727140 13.984100 -13.564800 2.632030 4.291520 15.656300 4.835860 1.930300 25.836100 8.966310 -5.909030 19.225000 5.851030 -1.962160 2.000000 -2.000000 0.000000 120.356003 -154.225998 -1.166770 60.381401 -0.282418 0.118905 -179.923996 -179.904999 6.857620 -2.000000 2.000000 0.000000 45.909801 41.398399 166.871002 -35.430099 0.326248 0.079259 -0.071179 0.056681 -153.923996 -17.761932 0.208351 -7.515913 60.966946 1.452677 3.816529 -5.905639 -28.570808 -4.759067 -68.214577 4.068556 19.777149 76.076530 0.364926 -4.618138 -11.120653 18.521914 1.643291 
1.402520 39.402081 46.712749 14.763900 -1.869800 15.786600 -13.995100 2.445370 3.900460 15.557200 4.981070 1.723820 25.619699 9.193710 -6.177600 19.147301 5.881630 -2.089470 2.000000 -2.000000 0.000000 124.713997 -149.287994 -3.553020 64.141197 -0.274479 0.123079 -179.923996 -179.904999 6.662310 -2.000000 2.000000 0.000000 42.576698 40.186901 167.106003 -37.422298 0.323426 0.083084 -0.072463 0.050926 -155.427994 -15.795034 1.324125 -8.026149 60.733952 1.620327 3.764005 -3.761791 -29.408302 -3.476797 -69.697807 2.599277 18.000719 78.862686 0.591826 -4.674409 -11.541951 18.616270 1.678364 
1.164812 38.928215 48.625755 14.806800 -2.266000 17.682100 -14.525100 2.331540 3.399330 15.350500 5.086460 1.480620 25.435499 8.974510 -6.473610 19.035200 5.743350 -2.255430 2.000000 -2.000000 0.000000 129.481003 -144.145004 -6.426210 67.715401 -0.266694 0.126557 -179.923996 -179.904007 6.545120 -2.000000 2.000000 0.000000 38.990002 39.231098 166.576004 -39.355900 0.320561 0.086700 -0.073153 0.052944 -156.188995 -13.772656 2.603173 -8.932250 59.636280 1.849751 3.663965 -1.643609 -29.461334 -2.146192 -71.006393 0.867191 16.084194 80.972145 0.762241 -4.706972 -11.367685 18.821051 1.547969 
0.959020 38.582745 50.647846 14.980900 -2.924630 19.481001 -15.200600 2.237930 2.868440 14.988200 5.034850 1.228700 25.415501 8.597340 -6.757620 18.961201 5.556630 -2.411010 2.000000 -2.000000 0.000000 -45.285000 -40.677700 170.212006 71.084503 -0.259170 0.129384 -179.923996 -179.904999 6.652540 -2.000000 2.000000 0.000000 35.530399 38.452000 165.656006 -41.308998 0.317545 0.090253 -0.073326 0.053434 -156.375000 -11.693692 4.098559 -10.013565 57.809082 2.172535 3.530204 0.032954 -28.528549 -0.905953 -71.921387 -0.777031 14.315043 81.885834 0.854581 -4.731696 -10.519779 19.636488 1.316680 
0.786229 38.389904 52.803501 15.229900 -3.816590 20.924400 -16.010700 2.143600 2.362790 14.490000 4.845890 0.999462 25.691999 8.263650 -6.896210 19.015800 5.404060 -2.504180 2.000000 -2.000000 0.000000 -39.659401 -44.671001 166.380005 74.219299 -0.252031 0.131613 -179.925003 -179.895996 7.160370 -2.000000 2.000000 0.000000 32.422901 37.858002 164.882996 -43.369598 0.314234 0.093887 -0.073326 0.053434 -156.375000 -9.244282 5.800609 -11.040153 54.558002 2.543120 3.348767 1.524719 -26.571238 -0.008138 -72.413712 -2.010942 12.713887 81.954147 0.849948 -4.729743 -9.750455 20.749905 1.129185 
0.647923 38.187134 55.062737 15.553700 -4.789540 21.793501 -16.897499 2.069920 1.856660 13.952400 4.685640 0.766935 26.278400 7.938350 -6.734800 19.230200 5.351030 -2.467420 2.000000 -2.000000 0.000000 -33.941799 -47.337101 162.089996 77.109901 -0.245349 0.133320 -179.917007 -179.897995 8.058810 -2.000000 2.000000 0.000000 29.678301 37.643398 164.804993 -45.605900 0.310495 0.097694 -0.073463 0.053821 -156.520996 -6.091793 7.579999 -11.927428 49.990532 3.024972 3.054020 2.123156 -23.354277 0.411519 -73.112213 -2.697612 11.286117 81.758308 0.847974 -4.727735 -9.529268 21.461172 1.089472 
0.547892 38.220387 57.483402 15.918800 -5.636150 22.027399 -17.811800 1.954090 1.349930 13.404600 4.593050 0.528110 27.022800 7.556620 -6.224880 19.516199 5.399640 -2.249660 2.000000 -2.000000 0.000000 -28.540701 -48.606701 157.688004 79.639198 -0.239438 0.134535 0.081747 -0.099358 -170.867004 -2.000000 2.000000 0.000000 27.374701 37.895500 165.567001 -48.066898 0.306212 0.101711 -0.073927 0.055107 -157.009995 -2.394572 8.920218 -12.802740 44.628605 3.841988 2.682443 0.697176 -18.382425 -0.038742 -73.547508 -2.865144 9.965712 81.122772 0.849163 -4.738652 -9.738892 21.709644 1.213372 
0.480402 38.285107 59.998425 16.299700 -6.216450 21.740101 -18.703800 1.722970 0.869769 12.886500 4.490870 0.275064 27.769400 7.035020 -5.410280 19.793200 5.476450 -1.897440 2.000000 -2.000000 0.000000 -23.808701 -48.781700 153.587006 81.621597 -0.234770 0.135305 0.079883 -0.096525 -169.656006 -2.000000 2.000000 0.000000 25.648800 38.556099 167.052994 -50.742699 0.301364 0.105865 -0.074624 0.056977 -157.722000 2.191849 9.435564 -14.008862 38.105042 5.392450 2.253093 -3.205131 -10.993032 -1.392221 -74.069183 -2.725834 8.844014 80.721367 0.835146 -4.743380 -10.088347 21.597403 1.348703 
0.429640 38.377399 62.574680 16.672001 -6.476200 21.189501 -19.534201 1.282030 0.415510 12.458000 4.254180 0.030205 28.482700 6.390860 -4.439570 20.031300 5.563450 -1.437180 2.000000 -2.000000 0.000000 -19.836500 -48.417999 150.063004 82.822800 -0.231931 0.135692 0.077738 -0.083328 -168.210999 -2.000000 2.000000 0.000000 24.538700 39.362202 168.998001 -53.682098 0.295822 0.110163 -0.075456 0.059119 -158.542999 11.490561 5.190419 -11.849595 24.434198 18.880960 3.315411 -9.789829 5.501498 -7.726574 -74.417152 -2.472008 8.009739 80.399117 0.841125 -4.753477 -10.465460 21.562859 1.546837 
0.358428 38.561863 65.199013 17.025600 -6.464210 20.730000 -20.264900 0.638878 -0.048487 12.128700 3.912500 -0.237416 29.150900 5.724080 -3.399650 20.259501 5.641060 -0.931977 2.000000 -2.000000 0.000000 -16.704599 -47.925598 147.261993 83.135300 -0.231191 0.135783 0.075165 -0.078940 -166.393997 -2.000000 2.000000 0.000000 23.877600 40.040600 171.184006 -56.934101 0.289442 0.114579 -0.076234 0.061046 -159.285004 12.171583 5.179328 -10.389068 25.423134 19.485851 3.567491 -10.831479 11.661342 -7.219573 -74.410011 -2.219661 7.499168 79.997337 0.812673 -4.760550 -11.173215 21.607229 1.868653 
0.218491 38.904110 67.862213 17.382200 -6.255920 20.653601 -20.877600 -0.140763 -0.625693 11.886300 3.678300 -0.589276 29.701000 5.127540 -2.387180 20.449100 5.738350 -0.424542 2.000000 -2.000000 0.000000 -14.590000 -47.509602 145.307999 82.598198 -0.232462 0.135624 0.072417 -0.073867 -164.334000 -2.000000 2.000000 0.000000 -156.628006 139.593002 -6.666850 -60.518101 0.282134 0.119018 -0.076675 0.062106 -159.695007 12.732127 4.849041 -9.354953 26.306133 20.035431 3.832622 -14.137466 19.148214 -5.811625 -73.931831 -2.024906 7.257492 79.380295 0.792999 -4.754807 -12.414904 21.474672 2.372126 
-0.027063 39.412651 70.540024 17.716000 -5.955790 21.128000 -21.343000 -0.947620 -1.275760 11.690800 3.657070 -0.999193 30.075500 4.892470 -1.492770 20.573500 5.940570 0.010354 2.000000 -2.000000 0.000000 -13.562000 -47.365101 144.255997 81.338402 -0.235439 0.135205 0.070041 -0.069093 -162.429993 -2.000000 2.000000 0.000000 -157.087006 139.832001 -4.890090 -64.443901 0.273828 0.123346 -0.076643 0.062031 -159.666000 13.192459 4.510736 -8.905194 26.684607 20.278522 3.973436 -17.304060 26.008713 -3.534024 -72.988701 -1.928895 7.152800 78.605721 0.736868 -4.751598 -14.174159 21.095049 3.016398 
